<svg width="25" height="25" viewBox="0 0 25 25" fill="none" xmlns="http://www.w3.org/2000/svg">
<rect width="25" height="25" transform="translate(25 25) rotate(-180)" fill="white"/>
<path d="M12.5 23.4375C18.54 23.4375 23.4375 18.54 23.4375 12.5C23.4375 6.45996 18.54 1.5625 12.5 1.5625C6.45996 1.5625 1.5625 6.45996 1.5625 12.5C1.5625 18.54 6.45996 23.4375 12.5 23.4375ZM8.98193 12.3315L14.314 8.45215C14.3432 8.43114 14.3777 8.4186 14.4135 8.4159C14.4494 8.41321 14.4854 8.42046 14.5174 8.43686C14.5495 8.45326 14.5764 8.47817 14.5952 8.50887C14.614 8.53956 14.624 8.57484 14.624 8.61084L14.624 16.3647C14.6241 16.4008 14.6143 16.4362 14.5955 16.467C14.5767 16.4978 14.5498 16.5228 14.5177 16.5393C14.4856 16.5557 14.4496 16.5629 14.4136 16.5601C14.3776 16.5573 14.3432 16.5446 14.314 16.5234L8.98193 12.6465C8.95674 12.6287 8.93619 12.6051 8.92201 12.5777C8.90783 12.5503 8.90043 12.5199 8.90043 12.489C8.90043 12.4582 8.90783 12.4278 8.92201 12.4004C8.93619 12.373 8.95674 12.3494 8.98193 12.3315Z" fill="#DEDEDE"/>
</svg>
